<svg data-v-423bf9ae="" xmlns="http://www.w3.org/2000/svg" viewBox="0 0 232.0840560584537 60" class="font"><!----><!----><!----><g data-v-423bf9ae="" id="b5b0475b-950e-4801-983b-7b584d4d1b73" fill="black" transform="matrix(3.5026267518266785,0,0,3.5026267518266785,-0.5954462679743955,-11.55866739875404)"><path d="M3.21 13.93L3.22 13.71Q3.22 13.10 3.09 13.10Q2.95 13.10 2.72 13.45Q2.49 13.80 2.23 14.16Q1.96 14.52 1.74 14.52L1.74 14.52Q1.61 14.52 1.35 14.07Q1.09 13.62 0.78 13.18Q0.48 12.74 0.24 12.74L0.24 12.74Q0.17 12.74 0.17 12.67L0.17 12.67Q0.17 12.45 0.70 11.86Q1.23 11.27 1.46 11.27Q1.69 11.27 2.15 12.00Q2.60 12.73 2.76 12.73Q2.91 12.73 3.38 12.15Q3.85 11.58 4.12 11.58Q4.40 11.58 4.53 11.79Q4.66 12.01 4.68 12.26Q4.70 12.52 4.73 12.73Q4.76 12.95 4.84 12.95L4.84 12.95Q4.98 12.95 5.57 12.26Q6.15 11.56 6.41 11.56L6.41 11.56Q6.71 11.56 7.39 12.45L7.39 12.45Q7.64 12.78 8.03 13.05Q8.41 13.33 8.67 13.33Q8.92 13.33 9.16 13.24Q9.39 13.16 9.56 13.16Q9.73 13.16 9.73 13.27L9.73 13.27Q9.73 13.33 9.68 13.37Q9.63 13.41 9.44 13.59Q9.25 13.76 9.13 13.86Q9.02 13.96 8.80 14.13Q8.58 14.31 8.43 14.41L8.43 14.41Q8.01 14.66 7.64 14.66Q7.27 14.66 6.81 14.24Q6.36 13.83 6.03 13.42Q5.70 13.01 5.54 13.01Q5.39 13.01 5.05 13.43Q4.70 13.85 4.35 14.27Q3.99 14.69 3.73 14.69Q3.47 14.69 3.34 14.45Q3.21 14.21 3.21 13.93L3.21 13.93ZM11.86 13.93L11.87 13.71Q11.87 13.10 11.74 13.10Q11.61 13.10 11.38 13.45Q11.14 13.80 10.88 14.16Q10.61 14.52 10.39 14.52L10.39 14.52Q10.26 14.52 10.00 14.07Q9.74 13.62 9.44 13.18Q9.13 12.74 8.89 12.74L8.89 12.74Q8.82 12.74 8.82 12.67L8.82 12.67Q8.82 12.45 9.35 11.86Q9.88 11.27 10.11 11.27Q10.35 11.27 10.80 12.00Q11.26 12.73 11.41 12.73Q11.56 12.73 12.03 12.15Q12.50 11.58 12.77 11.58Q13.05 11.58 13.18 11.79Q13.31 12.01 13.33 12.26Q13.36 12.52 13.38 12.73Q13.41 12.95 13.50 12.95L13.50 12.95Q13.64 12.95 14.22 12.26Q14.80 11.56 15.06 11.56L15.06 11.56Q15.36 11.56 16.04 12.45L16.04 12.45Q16.30 12.78 16.68 13.05Q17.07 13.33 17.32 13.33Q17.57 13.33 17.81 13.24Q18.05 13.16 18.21 13.16Q18.38 13.16 18.38 13.27L18.38 13.27Q18.38 13.33 18.33 13.37Q18.28 13.41 18.09 13.59Q17.91 13.76 17.79 13.86Q17.67 13.96 17.45 14.13Q17.23 14.31 17.08 14.41L17.08 14.41Q16.66 14.66 16.29 14.66Q15.92 14.66 15.46 14.24Q15.01 13.83 14.68 13.42Q14.35 13.01 14.20 13.01Q14.04 13.01 13.70 13.43Q13.36 13.85 13.00 14.27Q12.64 14.69 12.38 14.69Q12.12 14.69 11.99 14.45Q11.86 14.21 11.86 13.93L11.86 13.93ZM21.06 8.82L21.06 8.82Q21.06 10.54 21.35 11.63L21.35 11.63Q21.70 10.74 21.93 9.63Q22.16 8.51 22.16 8.05L22.16 8.05Q22.16 6.57 21.78 6.57L21.78 6.57Q21.46 6.57 21.26 7.37Q21.06 8.18 21.06 8.82ZM23.13 13.41L23.13 13.41L23.66 13.27Q23.84 13.27 23.84 13.43L23.84 13.43Q23.84 13.55 23.60 13.81Q23.37 14.07 22.92 14.35Q22.47 14.63 22.05 14.63L22.05 14.63Q21.13 14.63 20.72 13.62L20.72 13.62Q19.91 14.62 18.87 14.62L18.87 14.62Q18.34 14.62 18.10 14.23Q17.86 13.85 17.86 13.27L17.86 13.27Q17.86 12.50 18.71 11.69Q19.56 10.88 20.05 10.88L20.05 10.88Q20.17 10.88 20.22 11.03L20.22 11.03Q20.22 11.14 19.85 11.38L19.85 11.38Q19.31 11.72 19.31 12.25L19.31 12.25Q19.31 12.84 19.63 13.01L19.63 13.01Q19.87 13.15 20.07 13.15Q20.27 13.15 20.51 12.95L20.51 12.95Q20.36 12.19 20.36 11.12Q20.36 10.05 20.53 8.86Q20.71 7.66 21.10 6.68Q21.50 5.70 22.01 5.70L22.01 5.70Q22.33 5.70 22.48 6.15Q22.64 6.59 22.64 7.25Q22.64 7.91 22.36 9.43Q22.09 10.95 21.55 12.21L21.55 12.21Q22.06 13.41 23.13 13.41ZM36.43 3.36L36.43 3.36Q36.69 3.36 36.88 3.54Q37.06 3.72 37.06 3.96L37.06 3.96Q37.06 4.38 36.51 5.06Q35.97 5.74 35.62 5.74L35.62 5.74Q35.53 5.74 35.51 5.63Q35.49 5.53 35.39 5.53L35.39 5.53Q34.86 5.53 33.66 6.88Q32.45 8.23 31.35 10.16L31.35 10.16Q33.84 12.89 36.15 12.89L36.15 12.89Q36.65 12.89 36.86 12.79Q37.07 12.68 37.14 12.64L37.14 12.64Q37.31 12.53 37.41 12.43Q37.52 12.33 37.63 12.33Q37.73 12.33 37.84 12.46Q37.94 12.59 37.94 12.73Q37.94 12.88 37.80 12.99L37.80 12.99Q36.34 14.50 34.58 14.50L34.58 14.50Q33.56 14.50 32.56 13.94Q31.57 13.38 30.42 11.93L30.42 11.93Q29.68 13.54 29.34 15.02L29.34 15.02Q29.30 15.20 29.23 15.26Q29.16 15.32 28.97 15.32L28.97 15.32Q28.64 15.32 28.64 15.01L28.64 15.01Q28.66 13.86 29.96 11.31L29.96 11.31Q28.41 9.11 27.62 6.38L27.62 6.38Q27.13 4.69 27.13 3.78L27.13 3.78Q27.13 3.64 27.25 3.47Q27.37 3.30 27.54 3.30L27.54 3.30Q27.66 3.30 27.66 3.56L27.66 3.56Q27.90 4.77 28.78 6.47Q29.67 8.16 30.88 9.62L30.88 9.62Q32.35 7.08 33.94 5.22Q35.53 3.36 36.43 3.36ZM39.17 12.31Q39.17 12.81 39.47 13.15Q39.76 13.50 40.24 13.50Q40.73 13.50 41.04 13.38Q41.36 13.26 41.52 13.14Q41.69 13.02 41.78 13.02L41.78 13.02Q41.90 13.02 41.90 13.15L41.90 13.15Q41.90 13.58 41.09 14.17Q40.28 14.77 39.20 14.77L39.20 14.77Q38.51 14.77 38.17 14.43Q37.83 14.08 37.83 13.52L37.83 13.52Q37.83 12.52 38.69 11.51Q39.55 10.51 40.67 10.51L40.67 10.51Q40.94 10.51 41.10 10.67Q41.26 10.84 41.26 11.14Q41.26 11.44 40.91 11.81Q40.57 12.18 40.22 12.18L40.22 12.18Q40.12 12.18 40.12 12.08Q40.12 11.98 40.23 11.87Q40.33 11.76 40.33 11.60Q40.33 11.44 40.23 11.28Q40.12 11.13 40.00 11.13L40.00 11.13Q39.62 11.13 39.40 11.47Q39.17 11.82 39.17 12.31ZM43.15 6.19L43.15 6.19Q42.57 6.19 42.57 9.98L42.57 9.98L42.57 10.82Q42.94 9.90 43.25 8.78Q43.57 7.66 43.57 6.92Q43.57 6.19 43.15 6.19ZM42.71 13.44L42.71 13.44Q42.85 13.44 43.53 12.52Q44.20 11.59 44.38 11.58Q44.56 11.58 44.74 11.89Q44.93 12.19 45.10 12.56Q45.28 12.94 45.67 13.25Q46.06 13.57 46.45 13.57Q46.84 13.57 46.93 13.51Q47.01 13.45 47.06 13.45Q47.11 13.45 47.11 13.57L47.11 13.57Q47.10 13.85 46.66 14.24Q46.23 14.64 45.51 14.64L45.51 14.64Q44.31 14.64 43.83 13.26L43.83 13.26Q43.79 13.17 43.76 13.17Q43.72 13.17 43.65 13.23Q43.58 13.29 43.36 13.55Q43.13 13.82 42.90 14.10Q42.67 14.38 42.62 14.43Q42.56 14.49 42.41 14.49Q42.25 14.49 42.24 14.32L42.24 14.32Q42.11 13.06 42.11 11.68Q42.11 10.30 42.15 9.55Q42.18 8.79 42.29 7.60Q42.41 6.41 42.69 5.66Q42.98 4.90 43.41 4.90L43.41 4.90Q44.32 4.90 44.32 6.17L44.32 6.17Q44.32 7.27 43.74 8.92Q43.15 10.58 42.60 11.55L42.60 11.55Q42.66 13.44 42.71 13.44ZM50.27 12.33L50.27 12.33L50.22 12.73Q50.22 12.98 50.43 13.25Q50.65 13.52 50.95 13.52L50.95 13.52Q51.17 13.52 51.31 13.43L51.31 13.43Q51.62 13.22 51.69 13.14Q51.77 13.06 51.95 13.06Q52.12 13.06 52.12 13.19L52.12 13.19Q52.12 13.33 51.46 14.07L51.46 14.07Q51.25 14.31 50.85 14.57Q50.44 14.84 50.13 14.84Q49.81 14.84 49.65 14.73Q49.49 14.63 49.42 14.41L49.42 14.41Q49.34 14.10 49.34 13.65L49.34 13.65Q49.34 13.59 49.27 13.59Q49.20 13.59 48.94 13.87L48.94 13.87Q48.16 14.69 47.68 14.69Q47.19 14.69 46.93 14.43Q46.68 14.18 46.68 13.79L46.68 13.79Q46.68 13.10 47.04 12.48Q47.40 11.86 47.91 11.48L47.91 11.48Q49.03 10.65 49.64 10.65L49.64 10.65Q50.57 10.68 50.57 11.31L50.57 11.31Q50.57 11.54 50.37 11.75Q50.18 11.97 50.01 11.97Q49.84 11.97 49.55 11.68Q49.25 11.38 48.90 11.38Q48.55 11.38 48.33 11.67Q48.10 11.96 48.10 12.40L48.10 12.40Q48.10 13.13 48.87 13.13L48.87 13.13Q49.18 13.13 49.38 12.98Q49.59 12.82 49.67 12.64L49.67 12.64Q49.91 12.17 50.11 12.17L50.11 12.17Q50.27 12.17 50.27 12.33ZM51.83 12.92L51.83 12.92Q51.83 12.70 52.26 12.19Q52.70 11.68 52.97 11.68Q53.24 11.68 53.37 11.89Q53.51 12.10 53.54 12.35Q53.56 12.60 53.70 12.81Q53.83 13.02 54.09 13.02Q54.35 13.02 54.55 12.79Q54.75 12.56 54.88 12.27Q55.01 11.98 55.22 11.75Q55.43 11.52 55.63 11.52Q55.83 11.52 55.92 11.69L55.92 11.69Q56.78 13.55 57.68 13.55L57.68 13.55Q57.82 13.55 57.93 13.51Q58.04 13.47 58.10 13.47L58.10 13.47Q58.27 13.47 58.27 13.73L58.27 13.73Q58.27 14.21 57.77 14.59Q57.27 14.97 56.76 14.97Q56.24 14.97 55.88 14.63Q55.52 14.29 55.39 13.94Q55.26 13.58 55.19 13.24Q55.13 12.91 55.06 12.91L55.06 12.91Q54.95 12.91 54.62 13.35Q54.29 13.79 53.88 14.24Q53.47 14.69 53.14 14.69L53.14 14.69Q52.81 14.64 52.61 14.36Q52.42 14.07 52.36 13.76L52.36 13.76Q52.23 12.92 51.83 12.92ZM60.96 15.48Q60.52 16.13 60.40 16.63Q60.27 17.14 60.27 17.84Q60.27 18.54 60.65 18.58L60.65 18.58Q60.97 18.58 60.97 16.59L60.97 16.59Q60.97 15.90 60.96 15.48L60.96 15.48ZM60.96 14.99L60.96 14.99Q60.93 14.55 60.93 13.62L60.93 13.62Q60.90 13.62 60.72 13.80Q60.55 13.97 60.33 14.17Q60.12 14.38 59.79 14.55Q59.46 14.73 59.02 14.73Q58.59 14.73 58.32 14.46Q58.04 14.20 58.04 13.75L58.04 13.75Q58.04 12.78 58.99 11.75Q59.93 10.72 61.05 10.72L61.05 10.72Q61.40 10.72 61.62 10.88Q61.84 11.05 61.84 11.30L61.84 11.30Q61.84 11.52 61.67 11.72L61.67 11.72Q61.38 12.05 60.93 12.05L60.93 12.05Q60.76 12.05 60.76 11.96L60.76 11.96Q60.76 11.90 60.79 11.83Q60.83 11.76 60.83 11.65L60.83 11.65Q60.83 11.37 60.56 11.37L60.56 11.37Q60.13 11.37 59.84 11.75Q59.54 12.12 59.54 12.49Q59.54 12.85 59.72 13.03Q59.89 13.20 60.12 13.20Q60.34 13.20 60.63 12.99Q60.93 12.78 61.01 12.52L61.01 12.52Q61.11 12.15 61.45 12.15L61.45 12.15Q61.57 12.15 61.57 12.34Q61.57 12.53 61.48 12.86Q61.39 13.19 61.35 13.45Q61.32 13.71 61.32 14.55L61.32 14.55Q62.17 13.54 62.87 12.89L62.87 12.89Q63.03 12.74 63.18 12.74Q63.34 12.74 63.34 12.84Q63.34 12.95 63.18 13.09L63.18 13.09Q61.96 14.20 61.33 14.98L61.33 14.98Q61.36 15.99 61.36 16.62L61.36 16.62Q61.36 18.34 61.10 19.38Q60.84 20.43 60.12 20.43L60.12 20.43Q59.65 20.43 59.40 19.98Q59.15 19.54 59.15 18.79L59.15 18.79Q59.15 17.26 60.96 14.99ZM63.59 12.52Q63.83 12.43 64.07 11.98Q64.32 11.52 64.32 11.23Q64.32 10.93 64.09 10.92L64.09 10.92Q63.76 10.92 63.62 11.22Q63.48 11.52 63.48 11.88Q63.48 12.24 63.59 12.52L63.59 12.52ZM64.79 13.43L64.79 13.43Q65.18 13.43 65.44 13.25Q65.70 13.08 65.93 12.80Q66.16 12.52 66.30 12.52Q66.43 12.52 66.43 12.64L66.43 12.64Q66.43 12.73 66.37 12.84L66.37 12.84Q65.91 13.58 65.23 14.15Q64.54 14.71 63.77 14.71Q63 14.71 62.66 14.34Q62.31 13.97 62.31 13.36L62.31 13.36Q62.31 12.29 63.11 11.18Q63.91 10.07 64.76 10.07L64.76 10.07Q65.21 10.07 65.21 10.43L65.21 10.43Q65.21 10.92 64.90 11.45Q64.60 11.97 63.77 12.87L63.77 12.87Q64.15 13.43 64.79 13.43Z"></path></g><!----><!----></svg>